<?xml version="1.0" encoding="UTF-8"?>
<!DOCTYPE svg PUBLIC "-//W3C//DTD SVG 1.1//EN" "http://www.w3.org/Graphics/SVG/1.1/DTD/svg11.dtd">
<svg xmlns="http://www.w3.org/2000/svg" version="1.1" width="984px" height="1598px" style="shape-rendering:geometricPrecision; text-rendering:geometricPrecision; image-rendering:optimizeQuality; fill-rule:evenodd; clip-rule:evenodd" xmlns:xlink="http://www.w3.org/1999/xlink">
<g><path style="opacity:1" fill="#f9f9f9" d="M -0.5,-0.5 C 327.5,-0.5 655.5,-0.5 983.5,-0.5C 983.5,532.167 983.5,1064.83 983.5,1597.5C 655.5,1597.5 327.5,1597.5 -0.5,1597.5C -0.5,1064.83 -0.5,532.167 -0.5,-0.5 Z"/></g>
<g><path style="opacity:1" fill="#fabd87" d="M 307.5,90.5 C 306.833,89.8333 306.167,89.1667 305.5,88.5C 305.281,87.325 305.614,86.325 306.5,85.5C 307.452,87.0453 307.785,88.712 307.5,90.5 Z"/></g>
<g><path style="opacity:1" fill="#f98007" d="M 305.5,88.5 C 306.167,89.1667 306.833,89.8333 307.5,90.5C 309.369,106.74 316.369,120.24 328.5,131C 337.13,136.321 346.464,139.654 356.5,141C 342.886,143.224 331.053,149.057 321,158.5C 313.276,169.007 308.276,180.674 306,193.5C 303.638,181.715 299.305,170.715 293,160.5C 282.609,150.72 270.442,144.22 256.5,141C 270.79,138.807 282.957,132.64 293,122.5C 299.25,111.915 303.417,100.582 305.5,88.5 Z"/></g>
<g><path style="opacity:1" fill="#074aab" d="M 649.5,221.5 C 647.034,223.757 645.034,226.423 643.5,229.5C 640.94,228.565 640.274,229.399 641.5,232C 637.991,232.571 636.657,234.404 637.5,237.5C 634.973,238.214 632.473,238.88 630,239.5C 629.436,237.438 629.936,235.605 631.5,234C 631.389,232.278 630.889,232.112 630,233.5C 629.681,226.472 628.181,219.805 625.5,213.5C 622.254,213.865 619.588,212.865 617.5,210.5C 616.323,207.47 614.657,204.803 612.5,202.5C 612,200.5 611.5,198.5 611,196.5C 607.68,195.034 605.346,192.701 604,189.5C 602.604,192.298 601.77,195.298 601.5,198.5C 600.127,198.343 598.793,198.51 597.5,199C 598.428,199.388 599.095,200.055 599.5,201C 600.442,205.216 601.442,209.383 602.5,213.5C 601.022,213.238 599.689,213.571 598.5,214.5C 599.609,215.965 599.109,216.965 597,217.5C 594.31,215.105 592.643,212.105 592,208.5C 592.466,212.699 590.633,215.199 586.5,216C 588.569,216.324 588.902,217.158 587.5,218.5C 589.479,224.684 589.979,231.017 589,237.5C 588,234.833 587,232.167 586,229.5C 582.496,228.368 579.663,225.868 577.5,222C 579.359,221.399 579.692,220.566 578.5,219.5C 586.334,212.827 592.5,204.827 597,195.5C 604.029,178.716 609.196,161.382 612.5,143.5C 615.5,167.006 623.333,188.673 636,208.5C 639.736,213.738 644.236,218.071 649.5,221.5 Z"/></g>
<g><path style="opacity:1" fill="#0044a7" d="M 649.5,221.5 C 651.389,222.604 653.055,223.937 654.5,225.5C 653.305,225.322 652.138,224.989 651,224.5C 649.72,224.613 648.887,225.28 648.5,226.5C 649.518,227.852 650.851,228.852 652.5,229.5C 650.839,232.77 650.506,236.103 651.5,239.5C 653.903,238.553 656.57,238.387 659.5,239C 660.667,237.167 661.833,235.333 663,233.5C 663.707,235.081 664.54,236.581 665.5,238C 666.784,238.684 667.951,238.517 669,237.5C 669.492,238.549 669.326,239.549 668.5,240.5C 662.839,241.29 660.672,244.29 662,249.5C 661.085,248.672 660.419,247.672 660,246.5C 657.381,247.624 655.215,249.29 653.5,251.5C 651.826,250.12 650.16,248.787 648.5,247.5C 647.833,247.833 647.167,248.167 646.5,248.5C 647.441,248.489 648.108,248.989 648.5,250C 648.333,250.5 648.167,251 648,251.5C 647,251.167 646,250.833 645,250.5C 644.438,252.866 644.604,255.199 645.5,257.5C 644.167,259.167 642.833,260.833 641.5,262.5C 641.608,263.442 641.941,264.275 642.5,265C 642.167,265.167 641.833,265.333 641.5,265.5C 640.738,264.372 640.071,263.205 639.5,262C 638.833,261.333 638.167,261.333 637.5,262C 637.112,263.808 637.112,265.475 637.5,267C 635.555,266.872 633.722,267.038 632,267.5C 631.747,270.2 631.747,272.867 632,275.5C 631.683,273.699 631.016,273.366 630,274.5C 628.246,272.75 626.079,272.083 623.5,272.5C 623.318,274.675 622.651,276.675 621.5,278.5C 621.302,281.08 621.636,283.746 622.5,286.5C 623.552,286.351 624.552,286.517 625.5,287C 624.506,288.329 623.506,289.662 622.5,291C 623.056,292.011 623.722,292.844 624.5,293.5C 622.833,298.167 621.167,302.833 619.5,307.5C 618.751,306.469 618.085,305.302 617.5,304C 616.216,303.316 615.049,303.483 614,304.5C 613.054,301.688 611.387,299.355 609,297.5C 608.385,299.116 607.385,300.449 606,301.5C 605.742,296.144 604.242,291.311 601.5,287C 601.755,285.674 602.422,284.674 603.5,284C 602.373,282.247 601.373,280.413 600.5,278.5C 603.298,274.085 606.298,269.085 609.5,263.5C 609.333,263.167 609.167,262.833 609,262.5C 607.326,263.676 605.826,265.01 604.5,266.5C 603.081,264.664 601.914,262.664 601,260.5C 600.505,262.473 600.338,264.473 600.5,266.5C 597.552,266.777 594.719,266.444 592,265.5C 591.333,262.5 591.333,259.5 592,256.5C 593.018,257.706 593.518,257.373 593.5,255.5C 593.518,253.627 593.018,253.294 592,254.5C 591.51,253.207 591.343,251.873 591.5,250.5C 590.167,250.5 588.833,250.5 587.5,250.5C 587.5,252.833 587.5,255.167 587.5,257.5C 581.115,258.144 578.282,255.144 579,248.5C 578.346,249.696 577.846,249.696 577.5,248.5C 578.544,247.377 579.21,246.044 579.5,244.5C 578.506,241.673 577.172,239.006 575.5,236.5C 575.68,235.446 576.013,234.446 576.5,233.5C 574.726,232.813 573.059,231.98 571.5,231C 571.833,230.667 572.167,230.333 572.5,230C 571.778,228.249 570.778,226.749 569.5,225.5C 572.5,223.5 575.5,221.5 578.5,219.5C 579.692,220.566 579.359,221.399 577.5,222C 579.663,225.868 582.496,228.368 586,229.5C 587,232.167 588,234.833 589,237.5C 589.979,231.017 589.479,224.684 587.5,218.5C 588.902,217.158 588.569,216.324 586.5,216C 590.633,215.199 592.466,212.699 592,208.5C 592.643,212.105 594.31,215.105 597,217.5C 599.109,216.965 599.609,215.965 598.5,214.5C 599.689,213.571 601.022,213.238 602.5,213.5C 601.442,209.383 600.442,205.216 599.5,201C 599.095,200.055 598.428,199.388 597.5,199C 598.793,198.51 600.127,198.343 601.5,198.5C 601.77,195.298 602.604,192.298 604,189.5C 605.346,192.701 607.68,195.034 611,196.5C 611.5,198.5 612,200.5 612.5,202.5C 614.657,204.803 616.323,207.47 617.5,210.5C 619.588,212.865 622.254,213.865 625.5,213.5C 628.181,219.805 629.681,226.472 630,233.5C 630.889,232.112 631.389,232.278 631.5,234C 629.936,235.605 629.436,237.438 630,239.5C 632.473,238.88 634.973,238.214 637.5,237.5C 636.657,234.404 637.991,232.571 641.5,232C 640.274,229.399 640.94,228.565 643.5,229.5C 645.034,226.423 647.034,223.757 649.5,221.5 Z"/></g>
<g><path style="opacity:1" fill="#0447a8" d="M 379.5,227.5 C 380.873,227.343 382.207,227.51 383.5,228C 380.298,228.198 377.298,229.031 374.5,230.5C 375.538,232.764 377.038,233.098 379,231.5C 379.95,232.022 380.784,232.689 381.5,233.5C 392.702,233.537 403.702,233.37 414.5,233C 415.93,234.886 417.597,236.553 419.5,238C 417.479,238.14 415.645,238.307 414,238.5C 413.833,238.833 413.667,239.167 413.5,239.5C 414.376,240.251 415.376,240.751 416.5,241C 415.167,241.667 415.167,242.333 416.5,243C 415.5,243.333 414.5,243.667 413.5,244C 414.252,244.671 414.586,245.504 414.5,246.5C 384.154,252.014 356.821,264.014 332.5,282.5C 331.214,277.434 333.214,274.434 338.5,273.5C 338.5,272.5 338.5,271.5 338.5,270.5C 339.552,270.649 340.552,270.483 341.5,270C 340.477,267.551 339.977,265.051 340,262.5C 342.405,263.274 344.905,263.774 347.5,264C 348.227,265.399 348.727,266.899 349,268.5C 349.861,265.473 351.361,262.806 353.5,260.5C 356.271,259.783 358.937,259.449 361.5,259.5C 360.158,256.544 358.492,254.544 356.5,253.5C 359.121,251.128 358.788,250.462 355.5,251.5C 351.852,250.527 350.186,248.193 350.5,244.5C 349.127,244.657 347.793,244.49 346.5,244C 345.415,241.828 344.081,239.828 342.5,238C 338.893,236.539 335.227,235.372 331.5,234.5C 347.041,229.865 363.041,227.532 379.5,227.5 Z"/></g>
<g><path style="opacity:1" fill="#064aa7" d="M 379.5,227.5 C 399.388,226.023 419.388,226.523 439.5,229C 450.44,230.813 460.773,234.313 470.5,239.5C 466.167,240.167 461.833,240.833 457.5,241.5C 443.079,242.51 428.745,244.176 414.5,246.5C 414.586,245.504 414.252,244.671 413.5,244C 414.5,243.667 415.5,243.333 416.5,243C 415.167,242.333 415.167,241.667 416.5,241C 415.376,240.751 414.376,240.251 413.5,239.5C 413.667,239.167 413.833,238.833 414,238.5C 415.645,238.307 417.479,238.14 419.5,238C 417.597,236.553 415.93,234.886 414.5,233C 403.702,233.37 392.702,233.537 381.5,233.5C 380.784,232.689 379.95,232.022 379,231.5C 377.038,233.098 375.538,232.764 374.5,230.5C 377.298,229.031 380.298,228.198 383.5,228C 382.207,227.51 380.873,227.343 379.5,227.5 Z"/></g>
<g><path style="opacity:1" fill="#0044a8" d="M 331.5,234.5 C 335.227,235.372 338.893,236.539 342.5,238C 344.081,239.828 345.415,241.828 346.5,244C 347.793,244.49 349.127,244.657 350.5,244.5C 350.186,248.193 351.852,250.527 355.5,251.5C 358.788,250.462 359.121,251.128 356.5,253.5C 358.492,254.544 360.158,256.544 361.5,259.5C 358.937,259.449 356.271,259.783 353.5,260.5C 351.361,262.806 349.861,265.473 349,268.5C 348.727,266.899 348.227,265.399 347.5,264C 344.905,263.774 342.405,263.274 340,262.5C 339.977,265.051 340.477,267.551 341.5,270C 340.552,270.483 339.552,270.649 338.5,270.5C 338.5,271.5 338.5,272.5 338.5,273.5C 333.214,274.434 331.214,277.434 332.5,282.5C 301.339,309.14 282.339,342.806 275.5,383.5C 274.043,388.598 273.376,393.931 273.5,399.5C 271.692,432.034 276.192,463.7 287,494.5C 289.779,500.323 292.279,506.323 294.5,512.5C 294.631,513.239 294.464,513.906 294,514.5C 292.286,510.723 291.619,510.723 292,514.5C 295.039,516.679 295.206,519.012 292.5,521.5C 290.602,520.266 288.935,520.599 287.5,522.5C 286.911,525.837 285.911,529.004 284.5,532C 287.833,532.333 291.167,532.667 294.5,533C 295,533.5 295.5,534 296,534.5C 296.197,540.98 298.363,546.647 302.5,551.5C 304.04,549.563 306.04,548.396 308.5,548C 309.126,547.25 309.626,546.416 310,545.5C 311.876,547.422 313.376,549.589 314.5,552C 312.71,553.734 310.71,555.234 308.5,556.5C 307.571,557.689 307.238,559.022 307.5,560.5C 304.755,560.373 302.755,561.54 301.5,564C 304.098,563.578 306.764,563.578 309.5,564C 306.057,564.221 305.724,565.221 308.5,567C 307.253,568.494 307.253,569.994 308.5,571.5C 310.868,569.777 313.534,569.11 316.5,569.5C 316.281,570.675 316.614,571.675 317.5,572.5C 318.383,570.262 318.05,568.095 316.5,566C 317.833,565 319.167,564 320.5,563C 319.833,562.667 319.167,562.333 318.5,562C 322.494,560 326.494,558 330.5,556C 327.916,553.866 328.25,552.032 331.5,550.5C 330.515,548.902 330.349,547.235 331,545.5C 331.667,544.167 332.333,544.167 333,545.5C 332.913,540.037 333.746,534.87 335.5,530C 333.697,529.363 332.364,528.197 331.5,526.5C 330.671,521.533 330.171,516.533 330,511.5C 328.984,510.366 328.317,510.699 328,512.5C 327.833,511.5 327.667,510.5 327.5,509.5C 328.379,506.188 328.546,502.855 328,499.5C 326.957,503.226 326.457,502.893 326.5,498.5C 339.832,449.998 371.166,421.164 420.5,412C 461.958,410.31 490.125,428.81 505,467.5C 506.154,471.447 506.987,475.447 507.5,479.5C 507.326,487.473 506.826,487.473 506,479.5C 505.886,484.324 505.053,488.99 503.5,493.5C 502.742,492.189 501.742,491.689 500.5,492C 499.019,494.578 497.686,497.244 496.5,500C 497.116,502.359 498.616,503.859 501,504.5C 502.953,510.999 502.787,517.332 500.5,523.5C 501.333,525.5 501.166,527.166 500,528.5C 499.573,525.058 497.74,523.558 494.5,524C 495.846,525.642 495.513,526.309 493.5,526C 493.455,523.364 493.288,520.53 493,517.5C 492.333,516.167 491.667,516.167 491,517.5C 490.333,520.5 490.333,523.5 491,526.5C 492.847,529.406 494.014,532.573 494.5,536C 492.956,536.29 491.623,536.956 490.5,538C 491.022,541.571 491.689,545.405 492.5,549.5C 492.672,550.492 492.338,551.158 491.5,551.5C 490.9,548.375 489.733,548.042 488,550.5C 487.735,548.837 488.235,547.337 489.5,546C 488.451,545.508 487.451,545.674 486.5,546.5C 485.223,549.034 485.223,551.534 486.5,554C 484.591,554.448 483.424,553.615 483,551.5C 479.163,554.185 478.329,557.351 480.5,561C 479.351,562.744 478.017,562.911 476.5,561.5C 474.451,563.285 474.451,565.285 476.5,567.5C 476.333,568.5 476.167,569.5 476,570.5C 475.71,568.956 475.044,567.623 474,566.5C 473.15,567.424 472.15,567.424 471,566.5C 468.718,567.711 468.218,569.378 469.5,571.5C 468.902,572.795 468.402,574.128 468,575.5C 467,574.5 466,573.5 465,572.5C 462.867,573.418 460.7,573.584 458.5,573C 457.086,577.696 457.586,578.196 460,574.5C 460.138,576.432 459.638,578.266 458.5,580C 458.833,580.333 459.167,580.667 459.5,581C 458.313,582.019 457.313,583.186 456.5,584.5C 455.833,585.833 455.167,585.833 454.5,584.5C 455.645,583.109 455.645,581.776 454.5,580.5C 451.988,584.845 448.488,588.178 444,590.5C 442.833,592.833 441.667,595.167 440.5,597.5C 438.003,598.578 436.337,600.411 435.5,603C 432.404,603.179 429.404,604.013 426.5,605.5C 428.363,606.726 429.363,608.059 429.5,609.5C 430.931,609.023 432.264,608.357 433.5,607.5C 432.494,606.604 432.494,605.938 433.5,605.5C 434.182,606.243 434.849,606.909 435.5,607.5C 436.167,607.5 436.833,607.5 437.5,607.5C 436.044,610.431 436.877,611.098 440,609.5C 440.167,609.833 440.333,610.167 440.5,610.5C 439.624,611.251 438.624,611.751 437.5,612C 438.938,612.219 440.271,612.719 441.5,613.5C 440.892,615.684 441.559,617.684 443.5,619.5C 446.878,615.092 450.878,613.759 455.5,615.5C 455.524,617.245 455.19,619.079 454.5,621C 455.098,622.301 456.098,623.135 457.5,623.5C 460.787,621.86 463.787,619.86 466.5,617.5C 468.236,619.637 470.236,620.304 472.5,619.5C 480.556,620.494 488.723,621.494 497,622.5C 503.278,622.308 509.445,622.308 515.5,622.5C 516.311,624.391 517.644,625.724 519.5,626.5C 522.85,624.726 524.516,625.726 524.5,629.5C 526.167,629.5 527.833,629.5 529.5,629.5C 529.5,630.833 529.5,632.167 529.5,633.5C 527.876,633.64 526.71,632.973 526,631.5C 524.699,633.402 524.032,635.402 524,637.5C 525.194,635.475 526.694,635.141 528.5,636.5C 529.524,635.147 530.857,634.48 532.5,634.5C 532.238,635.978 532.571,637.311 533.5,638.5C 533.833,638.167 534.167,637.833 534.5,637.5C 532.582,633.564 532.082,629.564 533,625.5C 536.172,626.997 538.005,625.997 538.5,622.5C 540.924,622.192 543.257,622.526 545.5,623.5C 544.494,624.396 544.494,625.062 545.5,625.5C 546.914,624.376 548.414,623.376 550,622.5C 551.268,622.616 552.602,622.949 554,623.5C 554.388,622.572 555.055,621.905 556,621.5C 559.622,622.394 563.122,622.728 566.5,622.5C 567.216,621.689 568.05,621.022 569,620.5C 571.256,622.085 573.756,622.752 576.5,622.5C 576.657,623.873 576.49,625.207 576,626.5C 575.667,625.833 575.333,625.167 575,624.5C 573.916,625.665 573.083,626.998 572.5,628.5C 574.278,628.569 576.111,628.903 578,629.5C 577.421,626.343 578.754,624.009 582,622.5C 582.333,622.833 582.667,623.167 583,623.5C 582.852,622.175 583.018,621.008 583.5,620C 586.334,619.955 588.834,619.121 591,617.5C 592.171,618.893 593.671,619.727 595.5,620C 592.716,622.08 593.049,622.747 596.5,622C 597.126,621.25 597.626,620.416 598,619.5C 598.333,619.833 598.667,620.167 599,620.5C 598.518,623.76 598.518,627.093 599,630.5C 601.041,629.577 603.208,629.244 605.5,629.5C 606.167,627.181 606.334,624.847 606,622.5C 604.703,623.784 603.536,623.617 602.5,622C 603.766,621.691 604.933,621.191 606,620.5C 607,621.5 608,622.5 609,623.5C 611,622.167 613,622.167 615,623.5C 617.023,621.46 618.69,619.127 620,616.5C 620.483,617.448 620.649,618.448 620.5,619.5C 624.071,620.087 627.737,620.087 631.5,619.5C 631.298,621.989 631.798,624.323 633,626.5C 634.011,625.663 635.178,625.33 636.5,625.5C 636.5,623.833 636.5,622.167 636.5,620.5C 638.855,621.785 640.688,621.785 642,620.5C 641.888,618.822 641.388,617.155 640.5,615.5C 640.974,612.3 641.974,611.967 643.5,614.5C 643.291,615.086 642.957,615.586 642.5,616C 643.784,616.684 644.951,616.517 646,615.5C 646.333,617.167 646.667,618.833 647,620.5C 648.667,619.167 650.333,619.167 652,620.5C 653.793,616.024 653.626,611.69 651.5,607.5C 651.868,606.09 652.701,605.09 654,604.5C 655.2,606.412 656.867,607.745 659,608.5C 659.551,611.557 661.217,611.89 664,609.5C 666.036,610.102 667.87,611.102 669.5,612.5C 669.833,612.167 670.167,611.833 670.5,611.5C 666.979,608.276 666.645,604.61 669.5,600.5C 670.325,599.614 671.325,599.281 672.5,599.5C 672.703,601.39 672.037,602.89 670.5,604C 673.985,604.027 677.318,603.861 680.5,603.5C 681.833,604.167 682.833,605.167 683.5,606.5C 687.781,608.267 691.115,607.267 693.5,603.5C 691.437,602.976 689.937,603.976 689,606.5C 688.5,605.333 687.667,604.5 686.5,604C 686.833,603.667 687.167,603.333 687.5,603C 684.642,600.806 684.142,598.306 686,595.5C 690.377,596.551 694.877,597.384 699.5,598C 700.981,598.98 702.315,600.147 703.5,601.5C 705.225,598.326 706.558,594.993 707.5,591.5C 708.989,591.533 710.322,592.033 711.5,593C 710.167,593.333 708.833,593.667 707.5,594C 708,594.5 708.5,595 709,595.5C 710.699,594.594 712.533,594.261 714.5,594.5C 714.5,593.5 714.5,592.5 714.5,591.5C 718.106,591.211 721.606,591.544 725,592.5C 725.311,591.258 724.811,590.258 723.5,589.5C 724.689,588.571 726.022,588.238 727.5,588.5C 727.286,586.856 727.62,585.356 728.5,584C 726.402,581.962 724.069,580.462 721.5,579.5C 740.819,571.676 759.819,563.009 778.5,553.5C 779.804,555.959 781.637,557.293 784,557.5C 787.828,557.165 791.661,556.998 795.5,557C 795.167,557.333 794.833,557.667 794.5,558C 796.717,559.275 799.051,560.275 801.5,561C 800.167,561.667 800.167,562.333 801.5,563C 806.39,564.095 806.39,564.762 801.5,565C 805.163,567.97 805.163,571.137 801.5,574.5C 803.991,575.541 803.991,576.374 801.5,577C 804.416,579.071 804.082,580.405 800.5,581C 799.952,582.596 800.618,583.763 802.5,584.5C 778.198,612.979 749.865,636.479 717.5,655C 698.47,665.682 678.803,675.015 658.5,683C 625.012,694.941 591.345,706.274 557.5,717C 529.498,726.535 503.831,740.202 480.5,758C 470.86,766.797 462.194,776.297 454.5,786.5C 451.489,785.003 448.489,783.836 445.5,783C 446.167,784 446.833,785 447.5,786C 446.167,787.333 446.167,788.667 447.5,790C 446.451,790.492 445.451,790.326 444.5,789.5C 442.224,792.234 441.89,795.234 443.5,798.5C 443.167,799.167 442.833,799.833 442.5,800.5C 439.787,797.678 437.787,798.178 436.5,802C 439.933,804.812 440.266,807.979 437.5,811.5C 436.833,810.833 436.167,810.167 435.5,809.5C 433.929,810.309 432.262,810.643 430.5,810.5C 431.213,813.237 431.213,815.904 430.5,818.5C 431.263,819.719 432.263,820.719 433.5,821.5C 432.624,822.251 431.624,822.751 430.5,823C 431.059,823.725 431.392,824.558 431.5,825.5C 430.79,829.804 430.29,834.137 430,838.5C 428.833,840.333 427.667,842.167 426.5,844C 427.626,847.744 427.793,851.577 427,855.5C 426.667,854.833 426.333,854.167 426,853.5C 425.764,855.764 425.264,857.931 424.5,860C 425.333,860.833 426.167,861.667 427,862.5C 427.333,865.167 427.667,867.833 428,870.5C 428.333,866.5 428.667,862.5 429,858.5C 429.667,865.833 429.667,873.167 429,880.5C 428.195,878.099 427.362,878.266 426.5,881C 427.443,887.116 427.61,893.282 427,899.5C 427.605,901.481 428.605,901.815 430,900.5C 429.641,895.193 429.641,889.859 430,884.5C 430.186,887.036 430.686,889.369 431.5,891.5C 433.556,914.505 437.556,937.171 443.5,959.5C 443.851,961.869 444.018,964.203 444,966.5C 442.451,963.997 440.784,963.997 439,966.5C 435.603,964.442 433.937,961.442 434,957.5C 433.667,958.167 433.333,958.833 433,959.5C 431.956,958.377 431.29,957.044 431,955.5C 429.955,956.373 429.122,957.373 428.5,958.5C 422.866,952.696 417.366,946.696 412,940.5C 368.661,883.155 327.661,824.155 289,763.5C 256.258,709.687 229.758,653.02 209.5,593.5C 208.943,588.835 207.61,584.502 205.5,580.5C 205.768,578.901 205.434,577.568 204.5,576.5C 204.59,573.848 203.924,571.515 202.5,569.5C 197.378,548.886 193.045,528.219 189.5,507.5C 189.771,502.566 189.104,497.9 187.5,493.5C 187.64,487.464 187.307,481.464 186.5,475.5C 186.415,459.489 186.748,443.489 187.5,427.5C 191.981,374.518 210.814,327.518 244,286.5C 267.837,260.327 297.003,242.993 331.5,234.5 Z"/></g>
<g><path style="opacity:1" fill="#0649a9" d="M 654.5,225.5 C 668.117,232.54 682.45,237.707 697.5,241C 680.185,244.548 664.185,251.215 649.5,261C 638.373,269.787 630.04,280.62 624.5,293.5C 623.722,292.844 623.056,292.011 622.5,291C 623.506,289.662 624.506,288.329 625.5,287C 624.552,286.517 623.552,286.351 622.5,286.5C 621.636,283.746 621.302,281.08 621.5,278.5C 622.651,276.675 623.318,274.675 623.5,272.5C 626.079,272.083 628.246,272.75 630,274.5C 631.016,273.366 631.683,273.699 632,275.5C 631.747,272.867 631.747,270.2 632,267.5C 633.722,267.038 635.555,266.872 637.5,267C 637.112,265.475 637.112,263.808 637.5,262C 638.167,261.333 638.833,261.333 639.5,262C 640.071,263.205 640.738,264.372 641.5,265.5C 641.833,265.333 642.167,265.167 642.5,265C 641.941,264.275 641.608,263.442 641.5,262.5C 642.833,260.833 644.167,259.167 645.5,257.5C 644.604,255.199 644.438,252.866 645,250.5C 646,250.833 647,251.167 648,251.5C 648.167,251 648.333,250.5 648.5,250C 648.108,248.989 647.441,248.489 646.5,248.5C 647.167,248.167 647.833,247.833 648.5,247.5C 650.16,248.787 651.826,250.12 653.5,251.5C 655.215,249.29 657.381,247.624 660,246.5C 660.419,247.672 661.085,248.672 662,249.5C 660.672,244.29 662.839,241.29 668.5,240.5C 669.326,239.549 669.492,238.549 669,237.5C 667.951,238.517 666.784,238.684 665.5,238C 664.54,236.581 663.707,235.081 663,233.5C 661.833,235.333 660.667,237.167 659.5,239C 656.57,238.387 653.903,238.553 651.5,239.5C 650.506,236.103 650.839,232.77 652.5,229.5C 650.851,228.852 649.518,227.852 648.5,226.5C 648.887,225.28 649.72,224.613 651,224.5C 652.138,224.989 653.305,225.322 654.5,225.5 Z"/></g>
<g><path style="opacity:1" fill="#6f92c9" d="M 470.5,239.5 C 471.043,239.56 471.376,239.893 471.5,240.5C 466.88,241.493 462.214,241.827 457.5,241.5C 461.833,240.833 466.167,240.167 470.5,239.5 Z"/></g>
<g><path style="opacity:1" fill="#0649a8" d="M 569.5,225.5 C 570.778,226.749 571.778,228.249 572.5,230C 572.167,230.333 571.833,230.667 571.5,231C 573.059,231.98 574.726,232.813 576.5,233.5C 576.013,234.446 575.68,235.446 575.5,236.5C 577.172,239.006 578.506,241.673 579.5,244.5C 579.21,246.044 578.544,247.377 577.5,248.5C 577.846,249.696 578.346,249.696 579,248.5C 578.282,255.144 581.115,258.144 587.5,257.5C 587.5,255.167 587.5,252.833 587.5,250.5C 588.833,250.5 590.167,250.5 591.5,250.5C 591.343,251.873 591.51,253.207 592,254.5C 593.018,253.294 593.518,253.627 593.5,255.5C 593.518,257.373 593.018,257.706 592,256.5C 591.333,259.5 591.333,262.5 592,265.5C 594.719,266.444 597.552,266.777 600.5,266.5C 600.338,264.473 600.505,262.473 601,260.5C 601.914,262.664 603.081,264.664 604.5,266.5C 605.826,265.01 607.326,263.676 609,262.5C 609.167,262.833 609.333,263.167 609.5,263.5C 606.298,269.085 603.298,274.085 600.5,278.5C 601.373,280.413 602.373,282.247 603.5,284C 602.422,284.674 601.755,285.674 601.5,287C 604.242,291.311 605.742,296.144 606,301.5C 607.385,300.449 608.385,299.116 609,297.5C 611.387,299.355 613.054,301.688 614,304.5C 615.049,303.483 616.216,303.316 617.5,304C 618.085,305.302 618.751,306.469 619.5,307.5C 616.557,316.275 614.39,325.275 613,334.5C 609.59,316.66 603.59,299.66 595,283.5C 586.36,270.864 575.193,261.03 561.5,254C 549.662,249.056 537.662,244.722 525.5,241C 540.849,237.666 555.515,232.499 569.5,225.5 Z"/></g>
<g><path style="opacity:1" fill="#f98009" d="M 432.5,367.5 C 431.732,368.263 431.232,369.263 431,370.5C 430.722,369.584 430.222,368.918 429.5,368.5C 427.407,353.474 419.407,342.974 405.5,337C 401.5,335.667 397.5,334.333 393.5,333C 399.932,331.077 406.265,328.743 412.5,326C 418.533,321.774 423.033,316.274 426,309.5C 427.416,303.746 429.083,298.079 431,292.5C 432.373,302.243 435.707,311.243 441,319.5C 448.36,326.764 457.193,331.264 467.5,333C 447.35,335.983 435.684,347.483 432.5,367.5 Z"/></g>
<g><path style="opacity:1" fill="#fbc794" d="M 432.5,367.5 C 432.5,369.167 432.5,370.833 432.5,372.5C 431.5,372.5 430.5,372.5 429.5,372.5C 429.5,371.167 429.5,369.833 429.5,368.5C 430.222,368.918 430.722,369.584 431,370.5C 431.232,369.263 431.732,368.263 432.5,367.5 Z"/></g>
<g><path style="opacity:1" fill="#b6cce8" d="M 275.5,383.5 C 275.624,389.069 274.957,394.402 273.5,399.5C 273.376,393.931 274.043,388.598 275.5,383.5 Z"/></g>
<g><path style="opacity:1" fill="#86a6d5" d="M 187.5,427.5 C 186.748,443.489 186.415,459.489 186.5,475.5C 185.834,469.509 185.5,463.343 185.5,457C 185.364,446.958 186.031,437.125 187.5,427.5 Z"/></g>
<g><path style="opacity:1" fill="#0d4ba8" d="M 507.5,479.5 C 511.652,504.731 506.652,528.064 492.5,549.5C 491.689,545.405 491.022,541.571 490.5,538C 491.623,536.956 492.956,536.29 494.5,536C 494.014,532.573 492.847,529.406 491,526.5C 490.333,523.5 490.333,520.5 491,517.5C 491.667,516.167 492.333,516.167 493,517.5C 493.288,520.53 493.455,523.364 493.5,526C 495.513,526.309 495.846,525.642 494.5,524C 497.74,523.558 499.573,525.058 500,528.5C 501.166,527.166 501.333,525.5 500.5,523.5C 502.787,517.332 502.953,510.999 501,504.5C 498.616,503.859 497.116,502.359 496.5,500C 497.686,497.244 499.019,494.578 500.5,492C 501.742,491.689 502.742,492.189 503.5,493.5C 505.053,488.99 505.886,484.324 506,479.5C 506.826,487.473 507.326,487.473 507.5,479.5 Z"/></g>
<g><path style="opacity:1" fill="#7c9ed3" d="M 187.5,493.5 C 189.104,497.9 189.771,502.566 189.5,507.5C 188.356,503.036 187.69,498.37 187.5,493.5 Z"/></g>
<g><path style="opacity:1" fill="#0348aa" d="M 824.5,553.5 C 823.85,553.196 823.183,552.863 822.5,552.5C 821.167,554.167 819.833,555.833 818.5,557.5C 817.833,554.833 817.167,552.167 816.5,549.5C 815.28,548.289 814.113,548.289 813,549.5C 814.098,552.761 815.598,555.928 817.5,559C 816.5,559.5 815.5,560 814.5,560.5C 813.851,562.624 813.017,564.624 812,566.5C 810.667,565.833 809.667,564.833 809,563.5C 808.333,564.833 807.667,564.833 807,563.5C 806.257,561.559 806.424,559.726 807.5,558C 802.667,557.833 800.167,555.333 800,550.5C 799.25,551.126 798.416,551.626 797.5,552C 797.5,553 797.5,554 797.5,555C 794.955,555.615 792.622,555.115 790.5,553.5C 790.88,551.979 791.046,550.313 791,548.5C 792.011,549.337 793.178,549.67 794.5,549.5C 794.833,547.5 795.167,545.5 795.5,543.5C 812.066,532.953 827.899,521.286 843,508.5C 839.295,524.434 833.128,539.434 824.5,553.5 Z"/></g>
<g><path style="opacity:1" fill="#094ca9" d="M 795.5,543.5 C 795.167,545.5 794.833,547.5 794.5,549.5C 793.178,549.67 792.011,549.337 791,548.5C 791.046,550.313 790.88,551.979 790.5,553.5C 792.622,555.115 794.955,555.615 797.5,555C 797.5,554 797.5,553 797.5,552C 798.416,551.626 799.25,551.126 800,550.5C 800.167,555.333 802.667,557.833 807.5,558C 806.424,559.726 806.257,561.559 807,563.5C 807.667,564.833 808.333,564.833 809,563.5C 809.667,564.833 810.667,565.833 812,566.5C 813.017,564.624 813.851,562.624 814.5,560.5C 815.5,560 816.5,559.5 817.5,559C 815.598,555.928 814.098,552.761 813,549.5C 814.113,548.289 815.28,548.289 816.5,549.5C 817.167,552.167 817.833,554.833 818.5,557.5C 819.833,555.833 821.167,554.167 822.5,552.5C 823.183,552.863 823.85,553.196 824.5,553.5C 818.383,564.75 811.049,575.083 802.5,584.5C 800.618,583.763 799.952,582.596 800.5,581C 804.082,580.405 804.416,579.071 801.5,577C 803.991,576.374 803.991,575.541 801.5,574.5C 805.163,571.137 805.163,567.97 801.5,565C 806.39,564.762 806.39,564.095 801.5,563C 800.167,562.333 800.167,561.667 801.5,561C 799.051,560.275 796.717,559.275 794.5,558C 794.833,557.667 795.167,557.333 795.5,557C 791.661,556.998 787.828,557.165 784,557.5C 781.637,557.293 779.804,555.959 778.5,553.5C 783.967,549.929 789.633,546.596 795.5,543.5 Z"/></g>
<g><path style="opacity:1" fill="#074bab" d="M 326.5,498.5 C 326.457,502.893 326.957,503.226 328,499.5C 328.546,502.855 328.379,506.188 327.5,509.5C 327.667,510.5 327.833,511.5 328,512.5C 328.317,510.699 328.984,510.366 330,511.5C 330.171,516.533 330.671,521.533 331.5,526.5C 332.364,528.197 333.697,529.363 335.5,530C 333.746,534.87 332.913,540.037 333,545.5C 332.333,544.167 331.667,544.167 331,545.5C 330.349,547.235 330.515,548.902 331.5,550.5C 328.25,552.032 327.916,553.866 330.5,556C 326.494,558 322.494,560 318.5,562C 319.167,562.333 319.833,562.667 320.5,563C 319.167,564 317.833,565 316.5,566C 318.05,568.095 318.383,570.262 317.5,572.5C 316.614,571.675 316.281,570.675 316.5,569.5C 313.534,569.11 310.868,569.777 308.5,571.5C 307.253,569.994 307.253,568.494 308.5,567C 305.724,565.221 306.057,564.221 309.5,564C 306.764,563.578 304.098,563.578 301.5,564C 302.755,561.54 304.755,560.373 307.5,560.5C 307.238,559.022 307.571,557.689 308.5,556.5C 310.71,555.234 312.71,553.734 314.5,552C 313.376,549.589 311.876,547.422 310,545.5C 309.626,546.416 309.126,547.25 308.5,548C 306.04,548.396 304.04,549.563 302.5,551.5C 298.363,546.647 296.197,540.98 296,534.5C 295.5,534 295,533.5 294.5,533C 291.167,532.667 287.833,532.333 284.5,532C 285.911,529.004 286.911,525.837 287.5,522.5C 288.935,520.599 290.602,520.266 292.5,521.5C 295.206,519.012 295.039,516.679 292,514.5C 291.619,510.723 292.286,510.723 294,514.5C 294.464,513.906 294.631,513.239 294.5,512.5C 296.167,515.167 297.833,517.833 299.5,520.5C 305.27,533.709 313.27,545.376 323.5,555.5C 323.938,541.19 323.938,526.857 323.5,512.5C 324.138,507.643 325.138,502.977 326.5,498.5 Z"/></g>
<g><path style="opacity:1" fill="#e5eaf5" d="M 323.5,512.5 C 323.938,526.857 323.938,541.19 323.5,555.5C 313.27,545.376 305.27,533.709 299.5,520.5C 299.942,519.769 300.109,518.769 300,517.5C 305.139,528.092 311.639,537.759 319.5,546.5C 320.186,540.613 320.853,534.78 321.5,529C 320.359,523.25 320.193,517.416 321,511.5C 321.671,512.252 322.504,512.586 323.5,512.5 Z"/></g>
<g><path style="opacity:1" fill="#94b2dc" d="M 202.5,569.5 C 203.924,571.515 204.59,573.848 204.5,576.5C 203.076,574.485 202.41,572.152 202.5,569.5 Z"/></g>
<g><path style="opacity:1" fill="#094ba8" d="M 491.5,551.5 C 482.907,565.939 471.907,578.439 458.5,589C 450.328,594.725 442.661,600.892 435.5,607.5C 434.849,606.909 434.182,606.243 433.5,605.5C 432.494,605.938 432.494,606.604 433.5,607.5C 432.264,608.357 430.931,609.023 429.5,609.5C 429.363,608.059 428.363,606.726 426.5,605.5C 429.404,604.013 432.404,603.179 435.5,603C 436.337,600.411 438.003,598.578 440.5,597.5C 441.667,595.167 442.833,592.833 444,590.5C 448.488,588.178 451.988,584.845 454.5,580.5C 455.645,581.776 455.645,583.109 454.5,584.5C 455.167,585.833 455.833,585.833 456.5,584.5C 457.313,583.186 458.313,582.019 459.5,581C 459.167,580.667 458.833,580.333 458.5,580C 459.638,578.266 460.138,576.432 460,574.5C 457.586,578.196 457.086,577.696 458.5,573C 460.7,573.584 462.867,573.418 465,572.5C 466,573.5 467,574.5 468,575.5C 468.402,574.128 468.902,572.795 469.5,571.5C 468.218,569.378 468.718,567.711 471,566.5C 472.15,567.424 473.15,567.424 474,566.5C 475.044,567.623 475.71,568.956 476,570.5C 476.167,569.5 476.333,568.5 476.5,567.5C 474.451,565.285 474.451,563.285 476.5,561.5C 478.017,562.911 479.351,562.744 480.5,561C 478.329,557.351 479.163,554.185 483,551.5C 483.424,553.615 484.591,554.448 486.5,554C 485.223,551.534 485.223,549.034 486.5,546.5C 487.451,545.674 488.451,545.508 489.5,546C 488.235,547.337 487.735,548.837 488,550.5C 489.733,548.042 490.9,548.375 491.5,551.5 Z"/></g>
<g><path style="opacity:1" fill="#adc1e1" d="M 205.5,580.5 C 207.61,584.502 208.943,588.835 209.5,593.5C 207.39,589.498 206.057,585.165 205.5,580.5 Z"/></g>
<g><path style="opacity:1" fill="#084bab" d="M 721.5,579.5 C 724.069,580.462 726.402,581.962 728.5,584C 727.62,585.356 727.286,586.856 727.5,588.5C 726.022,588.238 724.689,588.571 723.5,589.5C 724.811,590.258 725.311,591.258 725,592.5C 721.606,591.544 718.106,591.211 714.5,591.5C 714.5,592.5 714.5,593.5 714.5,594.5C 712.533,594.261 710.699,594.594 709,595.5C 708.5,595 708,594.5 707.5,594C 708.833,593.667 710.167,593.333 711.5,593C 710.322,592.033 708.989,591.533 707.5,591.5C 706.558,594.993 705.225,598.326 703.5,601.5C 702.315,600.147 700.981,598.98 699.5,598C 694.877,597.384 690.377,596.551 686,595.5C 684.142,598.306 684.642,600.806 687.5,603C 687.167,603.333 686.833,603.667 686.5,604C 687.667,604.5 688.5,605.333 689,606.5C 689.937,603.976 691.437,602.976 693.5,603.5C 691.115,607.267 687.781,608.267 683.5,606.5C 682.833,605.167 681.833,604.167 680.5,603.5C 677.318,603.861 673.985,604.027 670.5,604C 672.037,602.89 672.703,601.39 672.5,599.5C 671.325,599.281 670.325,599.614 669.5,600.5C 666.645,604.61 666.979,608.276 670.5,611.5C 670.167,611.833 669.833,612.167 669.5,612.5C 667.87,611.102 666.036,610.102 664,609.5C 661.217,611.89 659.551,611.557 659,608.5C 656.867,607.745 655.2,606.412 654,604.5C 652.701,605.09 651.868,606.09 651.5,607.5C 653.626,611.69 653.793,616.024 652,620.5C 650.333,619.167 648.667,619.167 647,620.5C 646.667,618.833 646.333,617.167 646,615.5C 644.951,616.517 643.784,616.684 642.5,616C 642.957,615.586 643.291,615.086 643.5,614.5C 641.974,611.967 640.974,612.3 640.5,615.5C 641.388,617.155 641.888,618.822 642,620.5C 640.688,621.785 638.855,621.785 636.5,620.5C 636.5,622.167 636.5,623.833 636.5,625.5C 635.178,625.33 634.011,625.663 633,626.5C 631.798,624.323 631.298,621.989 631.5,619.5C 627.737,620.087 624.071,620.087 620.5,619.5C 620.649,618.448 620.483,617.448 620,616.5C 618.69,619.127 617.023,621.46 615,623.5C 613,622.167 611,622.167 609,623.5C 608,622.5 607,621.5 606,620.5C 604.933,621.191 603.766,621.691 602.5,622C 603.536,623.617 604.703,623.784 606,622.5C 606.334,624.847 606.167,627.181 605.5,629.5C 603.208,629.244 601.041,629.577 599,630.5C 598.518,627.093 598.518,623.76 599,620.5C 598.667,620.167 598.333,619.833 598,619.5C 597.626,620.416 597.126,621.25 596.5,622C 593.049,622.747 592.716,622.08 595.5,620C 593.671,619.727 592.171,618.893 591,617.5C 588.834,619.121 586.334,619.955 583.5,620C 583.018,621.008 582.852,622.175 583,623.5C 582.667,623.167 582.333,622.833 582,622.5C 578.754,624.009 577.421,626.343 578,629.5C 576.111,628.903 574.278,628.569 572.5,628.5C 573.083,626.998 573.916,625.665 575,624.5C 575.333,625.167 575.667,625.833 576,626.5C 576.49,625.207 576.657,623.873 576.5,622.5C 573.756,622.752 571.256,622.085 569,620.5C 568.05,621.022 567.216,621.689 566.5,622.5C 563.122,622.728 559.622,622.394 556,621.5C 555.055,621.905 554.388,622.572 554,623.5C 552.602,622.949 551.268,622.616 550,622.5C 548.414,623.376 546.914,624.376 545.5,625.5C 544.494,625.062 544.494,624.396 545.5,623.5C 543.257,622.526 540.924,622.192 538.5,622.5C 538.005,625.997 536.172,626.997 533,625.5C 532.082,629.564 532.582,633.564 534.5,637.5C 534.167,637.833 533.833,638.167 533.5,638.5C 532.571,637.311 532.238,635.978 532.5,634.5C 530.857,634.48 529.524,635.147 528.5,636.5C 526.694,635.141 525.194,635.475 524,637.5C 524.032,635.402 524.699,633.402 526,631.5C 526.71,632.973 527.876,633.64 529.5,633.5C 529.5,632.167 529.5,630.833 529.5,629.5C 527.833,629.5 526.167,629.5 524.5,629.5C 524.516,625.726 522.85,624.726 519.5,626.5C 517.644,625.724 516.311,624.391 515.5,622.5C 509.445,622.308 503.278,622.308 497,622.5C 488.723,621.494 480.556,620.494 472.5,619.5C 470.236,620.304 468.236,619.637 466.5,617.5C 463.787,619.86 460.787,621.86 457.5,623.5C 456.098,623.135 455.098,622.301 454.5,621C 455.19,619.079 455.524,617.245 455.5,615.5C 450.878,613.759 446.878,615.092 443.5,619.5C 441.559,617.684 440.892,615.684 441.5,613.5C 440.271,612.719 438.938,612.219 437.5,612C 438.624,611.751 439.624,611.251 440.5,610.5C 440.333,610.167 440.167,609.833 440,609.5C 436.877,611.098 436.044,610.431 437.5,607.5C 447.501,609.594 457.501,611.594 467.5,613.5C 475.601,615.29 483.934,616.29 492.5,616.5C 533.124,618.875 573.457,616.375 613.5,609C 632.893,604.985 652.226,600.652 671.5,596C 688.318,590.783 704.985,585.283 721.5,579.5 Z"/></g>
<g><path style="opacity:1" fill="#faaf64" d="M 164.5,605.5 C 163.51,611.31 163.177,617.31 163.5,623.5C 162.345,616.679 162.179,609.679 163,602.5C 164.039,603.244 164.539,604.244 164.5,605.5 Z"/></g>
<g><path style="opacity:1" fill="#83a4d5" d="M 467.5,613.5 C 476.049,613.856 484.382,614.856 492.5,616.5C 483.934,616.29 475.601,615.29 467.5,613.5 Z"/></g>
<g><path style="opacity:1" fill="#f97d02" d="M 164.5,605.5 C 197.12,762.809 276.12,890.975 401.5,990C 463.116,1034.48 526.45,1076.48 591.5,1116C 630.964,1140.4 668.297,1167.73 703.5,1198C 724.294,1216.51 742.128,1237.34 757,1260.5C 774.215,1288.36 782.215,1318.69 781,1351.5C 773.214,1410.95 740.047,1446.79 681.5,1459C 700.17,1444.45 714.67,1426.62 725,1405.5C 735.589,1379.54 734.922,1353.87 723,1328.5C 708.625,1300.45 688.792,1276.95 663.5,1258C 656.167,1252.67 648.833,1247.33 641.5,1242C 594.501,1212.5 547.167,1183.5 499.5,1155C 448.355,1123.09 399.688,1087.76 353.5,1049C 250.568,954.993 189.235,838.493 169.5,699.5C 168.884,688.275 167.55,677.275 165.5,666.5C 164.792,652.169 164.125,637.835 163.5,623.5C 163.177,617.31 163.51,611.31 164.5,605.5 Z"/></g>
<g><path style="opacity:1" fill="#fccd98" d="M 165.5,666.5 C 167.55,677.275 168.884,688.275 169.5,699.5C 167.445,688.725 166.112,677.725 165.5,666.5 Z"/></g>
<g><path style="opacity:1" fill="#fa7d02" d="M 551.5,1439.5 C 550.076,1441.51 549.41,1443.85 549.5,1446.5C 533.824,1492 502.158,1518.5 454.5,1526C 515.111,1478.51 523.278,1423.34 479,1360.5C 461.451,1340.62 442.284,1322.45 421.5,1306C 381.001,1277.06 342.334,1245.73 305.5,1212C 197.948,1105.68 141.448,976.512 136,824.5C 134.891,790.113 135.724,755.78 138.5,721.5C 148.914,821.243 178.414,914.576 227,1001.5C 261.067,1057.93 303.567,1107.43 354.5,1150C 395.045,1182.21 434.712,1215.54 473.5,1250C 501.386,1275.19 523.886,1304.36 541,1337.5C 552.092,1362.97 556.759,1389.64 555,1417.5C 554.025,1424.87 552.858,1432.21 551.5,1439.5 Z"/></g>
<g><path style="opacity:1" fill="#0849a6" d="M 454.5,786.5 C 442.657,803.356 435.324,822.023 432.5,842.5C 431.005,850.111 430.338,857.944 430.5,866C 430.501,871.344 430.834,876.511 431.5,881.5C 431.5,884.833 431.5,888.167 431.5,891.5C 430.686,889.369 430.186,887.036 430,884.5C 429.641,889.859 429.641,895.193 430,900.5C 428.605,901.815 427.605,901.481 427,899.5C 427.61,893.282 427.443,887.116 426.5,881C 427.362,878.266 428.195,878.099 429,880.5C 429.667,873.167 429.667,865.833 429,858.5C 428.667,862.5 428.333,866.5 428,870.5C 427.667,867.833 427.333,865.167 427,862.5C 426.167,861.667 425.333,860.833 424.5,860C 425.264,857.931 425.764,855.764 426,853.5C 426.333,854.167 426.667,854.833 427,855.5C 427.793,851.577 427.626,847.744 426.5,844C 427.667,842.167 428.833,840.333 430,838.5C 430.29,834.137 430.79,829.804 431.5,825.5C 431.392,824.558 431.059,823.725 430.5,823C 431.624,822.751 432.624,822.251 433.5,821.5C 432.263,820.719 431.263,819.719 430.5,818.5C 431.213,815.904 431.213,813.237 430.5,810.5C 432.262,810.643 433.929,810.309 435.5,809.5C 436.167,810.167 436.833,810.833 437.5,811.5C 440.266,807.979 439.933,804.812 436.5,802C 437.787,798.178 439.787,797.678 442.5,800.5C 442.833,799.833 443.167,799.167 443.5,798.5C 441.89,795.234 442.224,792.234 444.5,789.5C 445.451,790.326 446.451,790.492 447.5,790C 446.167,788.667 446.167,787.333 447.5,786C 446.833,785 446.167,784 445.5,783C 448.489,783.836 451.489,785.003 454.5,786.5 Z"/></g>
<g><path style="opacity:1" fill="#a6c2e1" d="M 432.5,842.5 C 431.701,855.484 431.367,868.484 431.5,881.5C 430.834,876.511 430.501,871.344 430.5,866C 430.338,857.944 431.005,850.111 432.5,842.5 Z"/></g>
<g><path style="opacity:1" fill="#1e50ab" d="M 443.5,959.5 C 446.111,965.177 447.611,971.177 448,977.5C 440.996,971.662 434.496,965.329 428.5,958.5C 429.122,957.373 429.955,956.373 431,955.5C 431.29,957.044 431.956,958.377 433,959.5C 433.333,958.833 433.667,958.167 434,957.5C 433.937,961.442 435.603,964.442 439,966.5C 440.784,963.997 442.451,963.997 444,966.5C 444.018,964.203 443.851,961.869 443.5,959.5 Z"/></g>
<g><path style="opacity:1" fill="#fcd0a0" d="M 551.5,1439.5 C 551.59,1442.15 550.924,1444.49 549.5,1446.5C 549.41,1443.85 550.076,1441.51 551.5,1439.5 Z"/></g>
</svg>
